<svg width="440" height="145" viewBox="0 0 440 145" fill="none" xmlns="http://www.w3.org/2000/svg">
<g clip-path="url(#clip0_2721_247)">
<rect width="440" height="145" fill="white"/>
<path d="M440 110.088H422.851V7.14856L440 0L440 110.088Z" fill="black"/>
<path d="M400.191 26.2629C392.64 26.2628 387.448 20.6012 387.448 13.5241C387.448 6.44703 392.64 0.785363 400.191 0.785364C407.743 0.785365 412.935 6.44703 412.935 13.5241C412.935 20.6012 407.743 26.2629 400.191 26.2629ZM408.687 110.087H391.696L391.696 36.7998L408.687 36.7998L408.687 110.087Z" fill="black"/>
<path d="M336.977 111.974C313.378 111.974 300.949 94.9886 300.949 73.4429C300.949 51.8971 314.636 34.9121 337.449 34.9121C347.203 34.9121 356.013 39.3156 360.576 46.7072V36.7993L377.567 36.7993L377.567 110.086H360.576V100.179C356.013 107.57 345.944 111.974 336.977 111.974ZM339.494 96.7186C354.125 96.7186 361.205 86.0243 361.205 73.4429C361.205 60.8614 354.125 50.1671 339.494 50.1671C326.121 50.1671 318.097 60.075 318.097 73.4429C318.097 86.8107 326.121 96.7186 339.494 96.7186Z" fill="black"/>
<path d="M280.644 110.085H263.496L263.496 44.4591L267.409 36.7981L280.644 36.7981L280.644 50.9523C283.319 40.5726 292.129 35.8545 300.153 35.8545C302.827 35.8545 304.114 36.7981 304.114 36.7981C302.578 42.3956 301.432 46.9299 300.153 51.8959C288.039 51.8959 280.644 61.0175 280.644 77.6879V110.085Z" fill="black"/>
<path d="M225.921 110.113L225.921 50.1661H215.113V35.8547H225.921L225.923 15.4106L243.071 8.26203L243.07 35.8547L259.904 35.8547L252.753 50.1661H243.07L243.07 110.113H225.921Z" fill="black"/>
<path d="M185.051 34.9136C202.671 34.9136 211.796 44.8215 211.796 64.0083L211.796 110.088H194.648V71.8717C194.648 56.3021 190.557 49.5396 178.6 49.5396C167.43 49.5396 161.137 56.9312 161.137 69.8272V110.088H143.988L143.988 7.14856L161.137 0L161.137 47.0233C165.699 39.1598 174.195 34.9136 185.051 34.9136Z" fill="black"/>
<path d="M115.684 46.7072L115.684 36.7993L132.833 36.7993L132.833 106.941C132.833 121.41 128.27 132.261 119.617 138.552C113.482 143.113 104.986 145 94.4451 145C84.6909 145 75.4086 142.956 68.6435 138.395C61.7211 133.677 57.316 126.6 57.0013 118.422H74.9366C76.3525 125.971 82.4883 130.846 94.2878 130.846C108.29 130.846 115.684 124.712 115.684 108.199V100.179C111.279 107.57 101.21 111.974 92.2426 111.974C69.4301 111.974 56.2147 94.9886 56.2147 73.4429C56.2147 51.8971 70.6888 34.9121 92.7146 34.9121C102.469 34.9121 111.279 39.3156 115.684 46.7072ZM94.7598 96.7186C108.762 96.7186 116.471 86.0243 116.471 73.4429C116.471 60.8614 108.762 50.1671 94.7598 50.1671C81.859 50.1671 73.3633 60.075 73.3633 73.4429C73.3633 86.8107 81.859 96.7186 94.7598 96.7186Z" fill="black"/>
<path d="M39.0578 26.2629C31.5061 26.2628 26.3143 20.6012 26.3143 13.5241C26.3143 6.44703 31.5061 0.785363 39.0578 0.785364C46.6095 0.785365 51.8013 6.44703 51.8013 13.5241C51.8013 20.6012 46.6095 26.2629 39.0578 26.2629ZM47.5534 110.087H30.5621L30.5621 36.7998L47.5534 36.7998L47.5534 110.087Z" fill="black"/>
<path d="M17.1486 110.088H0L1.80052e-05 7.14856L17.1487 0L17.1486 110.088Z" fill="black"/>
</g>
<defs>
<clipPath id="clip0_2721_247">
<rect width="440" height="145" fill="white"/>
</clipPath>
</defs>
</svg>
